<svg width="18" height="18" viewBox="0 0 18 18" fill="none" xmlns="http://www.w3.org/2000/svg">
<path d="M16.2929 0.292893C16.6834 -0.0976311 17.3164 -0.0976311 17.707 0.292893C18.0974 0.683424 18.0975 1.31646 17.707 1.70696L10.414 8.99992L17.707 16.2929C18.0974 16.6834 18.0975 17.3165 17.707 17.707C17.3165 18.0975 16.6834 18.0974 16.2929 17.707L8.99992 10.414L1.70696 17.707C1.31646 18.0975 0.683424 18.0974 0.292893 17.707C-0.0976311 17.3164 -0.0976311 16.6834 0.292893 16.2929L7.58586 8.99992L0.292893 1.70696C-0.0976311 1.31643 -0.0976311 0.683418 0.292893 0.292893C0.683418 -0.0976311 1.31643 -0.0976311 1.70696 0.292893L8.99992 7.58586L16.2929 0.292893Z" fill="black"/>
</svg>
