<svg width="22" height="26" viewBox="0 0 22 26" fill="none" xmlns="http://www.w3.org/2000/svg">
<path fill-rule="evenodd" clip-rule="evenodd" d="M21 3C21.5523 3 22 3.44772 22 4C22 4.55228 21.5523 5 21 5H20L19.0273 23.1602C18.942 24.7524 17.6257 26 16.0312 26H5.96875C4.37426 26 3.05795 24.7524 2.97266 23.1602L2 5H1C0.447715 5 0 4.55228 0 4C0 3.44772 0.447715 3 1 3H21ZM8 9C7.44772 9 7 9.44771 7 10V20C7 20.5523 7.44772 21 8 21C8.55229 21 9 20.5523 9 20V10C9 9.44771 8.55229 9 8 9ZM14 9C13.4477 9 13 9.44771 13 10V20C13 20.5523 13.4477 21 14 21C14.5523 21 15 20.5523 15 20V10C15 9.44771 14.5523 9 14 9Z" fill="black"/>
<path d="M16 0C16.5523 0 17 0.447715 17 1C17 1.55228 16.5523 2 16 2H6C5.44772 2 5 1.55228 5 1C5 0.447715 5.44772 0 6 0H16Z" fill="black"/>
</svg>
