<svg width="22" height="26" viewBox="0 0 22 26" fill="none" xmlns="http://www.w3.org/2000/svg">
<path d="M8 9C8.55229 9 9 9.44771 9 10V20C9 20.5523 8.55229 21 8 21C7.44772 21 7 20.5523 7 20V10C7 9.44771 7.44772 9 8 9Z" fill="black"/>
<path d="M14 9C14.5523 9 15 9.44771 15 10V20C15 20.5523 14.5523 21 14 21C13.4477 21 13 20.5523 13 20V10C13 9.44771 13.4477 9 14 9Z" fill="black"/>
<path fill-rule="evenodd" clip-rule="evenodd" d="M21 3C21.5523 3 22 3.44772 22 4C22 4.55228 21.5523 5 21 5H19.9023L19.0146 23.1465L18.9854 23.4424C18.7844 24.7998 17.6802 25.8512 16.3145 25.9854L16.0186 26H5.98145L5.68555 25.9854C4.2221 25.8416 3.05863 24.6446 2.98535 23.1465L2.09766 5H1C0.447715 5 0 4.55228 0 4C0 3.44772 0.447715 3 1 3H21ZM4.9834 23.0488C5.00945 23.5814 5.44833 23.9998 5.98145 24H16.0186C16.5517 23.9998 16.9906 23.5813 17.0166 23.0488L17.8994 5H4.10059L4.9834 23.0488Z" fill="black"/>
<path d="M16 0C16.5523 0 17 0.447715 17 1C17 1.55228 16.5523 2 16 2H6C5.44772 2 5 1.55228 5 1C5 0.447715 5.44772 0 6 0H16Z" fill="black"/>
</svg>
