<svg width="32" height="32" viewBox="0 0 32 32" fill="none" xmlns="http://www.w3.org/2000/svg">
<path d="M18.4463 18.168C18.9058 17.8622 19.5258 17.986 19.832 18.4453C20.1193 18.8762 20.0282 19.4492 19.6367 19.7715L19.5547 19.832L19.5527 19.833C19.5521 19.8334 19.5516 19.8344 19.5508 19.835C19.549 19.8361 19.5464 19.8372 19.5439 19.8389C19.5391 19.8421 19.533 19.8466 19.5254 19.8516C19.5097 19.8617 19.4876 19.875 19.4609 19.8916C19.4074 19.9249 19.3321 19.9708 19.2383 20.0244C19.0513 20.1313 18.7867 20.2727 18.4688 20.4141C17.8503 20.6889 16.9516 21 16 21C15.0484 21 14.1497 20.6889 13.5312 20.4141C13.2133 20.2727 12.9487 20.1313 12.7617 20.0244C12.6679 19.9708 12.5926 19.9249 12.5391 19.8916C12.5124 19.875 12.4903 19.8617 12.4746 19.8516C12.467 19.8466 12.4609 19.8421 12.4561 19.8389C12.4536 19.8372 12.451 19.8361 12.4492 19.835C12.4484 19.8344 12.4479 19.8334 12.4473 19.833L12.4453 19.832C11.9858 19.5257 11.8616 18.9048 12.168 18.4453C12.4742 17.986 13.0942 17.8622 13.5537 18.168C13.5548 18.1687 13.5572 18.1693 13.5596 18.1709C13.5666 18.1754 13.5787 18.1837 13.5957 18.1943C13.63 18.2157 13.6838 18.248 13.7539 18.2881C13.895 18.3687 14.0992 18.4773 14.3438 18.5859C14.8503 18.8111 15.4516 19 16 19C16.5484 19 17.1497 18.8111 17.6562 18.5859C17.9008 18.4773 18.105 18.3687 18.2461 18.2881C18.3162 18.248 18.37 18.2157 18.4043 18.1943C18.4213 18.1837 18.4334 18.1754 18.4404 18.1709C18.4428 18.1693 18.4452 18.1687 18.4463 18.168Z" fill="black"/>
<path d="M11.5 13C12.3284 13 13 13.6716 13 14.5C13 15.3284 12.3284 16 11.5 16C10.6716 16 10 15.3284 10 14.5C10 13.6716 10.6716 13 11.5 13Z" fill="black"/>
<path d="M20.5 13C21.3284 13 22 13.6716 22 14.5C22 15.3284 21.3284 16 20.5 16C19.6716 16 19 15.3284 19 14.5C19 13.6716 19.6716 13 20.5 13Z" fill="black"/>
<path fill-rule="evenodd" clip-rule="evenodd" d="M16 2C23.732 2 30 8.26801 30 16C30 23.732 23.732 30 16 30C8.26801 30 2 23.732 2 16C2 8.26801 8.26801 2 16 2ZM16 4C9.37258 4 4 9.37258 4 16C4 22.6274 9.37258 28 16 28C22.6274 28 28 22.6274 28 16C28 9.37258 22.6274 4 16 4Z" fill="black"/>
</svg>
