<svg width="20" height="24" viewBox="0 0 20 24" fill="none" xmlns="http://www.w3.org/2000/svg">
<path fill-rule="evenodd" clip-rule="evenodd" d="M17 7C18.6569 7 20 8.34315 20 10V21C20 22.6569 18.6569 24 17 24H3C1.34315 24 4.02666e-08 22.6569 0 21V10C0 8.34315 1.34315 7 3 7H4C4 4.816 4.61319 3.05537 5.72266 1.8291C6.83787 0.596582 8.3693 0 10 0C11.6307 0 13.1621 0.596582 14.2773 1.8291C15.3868 3.05537 16 4.816 16 7H17ZM14 7C14 5.1841 13.494 3.94462 12.7939 3.1709C12.0995 2.40346 11.1307 2 10 2C8.8693 2 7.90048 2.40346 7.20605 3.1709C6.50597 3.94462 6 5.1841 6 7H14ZM10 12C8.61929 12 7.5 13.1193 7.5 14.5C7.5 15.5249 8.11743 16.4041 9 16.79V19C9 19.5523 9.44772 20 10 20C10.5523 20 11 19.5523 11 19V16.79C11.8826 16.4041 12.5 15.5249 12.5 14.5C12.5 13.1193 11.3807 12 10 12Z" fill="#FAFAFA"/>
</svg>
