<svg width="28" height="28" viewBox="0 0 28 28" fill="none" xmlns="http://www.w3.org/2000/svg">
<path d="M8.60254 0.00488281C9.07297 0.0527828 9.44722 0.427034 9.49512 0.897461C9.49855 0.931163 9.5 0.965392 9.5 1V9H17.127C14.6663 10.3644 13 12.987 13 16V27C13 27.3646 13.0991 27.7056 13.2695 28H2C0.895431 28 8.05333e-09 27.1046 0 26V15C0 11.6863 2.68629 9 6 9H6.5V15.9443C6.5 16.7728 7.17157 17.4443 8 17.4443C8.05077 17.4443 8.10092 17.4415 8.15039 17.4365C7.77063 17.2947 7.5 16.9292 7.5 16.5V6H1C0.447715 6 6.44255e-08 5.55228 0 5V1C1.61065e-08 0.447715 0.447715 8.05319e-08 1 0H8.5C8.53461 0 8.56884 0.00145116 8.60254 0.00488281Z" fill="black"/>
<path fill-rule="evenodd" clip-rule="evenodd" d="M21 9C24.866 9 28 12.134 28 16V26C28 27.1046 27.1046 28 26 28H16C14.8954 28 14 27.1046 14 26V16C14 12.134 17.134 9 21 9ZM19.3848 15.3887C18.8326 15.3887 18.3849 15.8365 18.3848 16.3887C18.3848 16.941 18.8325 17.3887 19.3848 17.3887H22.6152L22.7178 17.3838C23.222 17.3325 23.6152 16.9064 23.6152 16.3887C23.6151 15.871 23.2219 15.4448 22.7178 15.3936L22.6152 15.3887H19.3848Z" fill="black"/>
</svg>
