<svg width="28" height="28" viewBox="0 0 28 28" fill="none" xmlns="http://www.w3.org/2000/svg">
<path d="M23 15C23.5523 15 24 15.4477 24 16C24 16.5523 23.5523 17 23 17H19C18.4477 17 18 16.5523 18 16C18 15.4477 18.4477 15 19 15H23Z" fill="black"/>
<path fill-rule="evenodd" clip-rule="evenodd" d="M8.60254 0.00488281C9.07297 0.0527828 9.44722 0.427034 9.49512 0.897461C9.49855 0.931163 9.5 0.965392 9.5 1V9H21L21.3604 9.00879C21.477 9.0147 21.5929 9.0236 21.708 9.03516C21.7387 9.03824 21.7692 9.04339 21.7998 9.04688C22.0037 9.07008 22.2051 9.10029 22.4033 9.14062C22.4187 9.14376 22.4339 9.14813 22.4492 9.15137C22.6537 9.19443 22.8552 9.24516 23.0527 9.30566C23.0984 9.31964 23.1433 9.33571 23.1885 9.35059C23.2555 9.37263 23.3226 9.39398 23.3887 9.41797C23.4261 9.43155 23.4629 9.44674 23.5 9.46094C23.5632 9.4851 23.6262 9.50923 23.6885 9.53516C23.7318 9.55321 23.7745 9.5729 23.8174 9.5918C23.8809 9.61978 23.9443 9.64793 24.0068 9.67773C24.0387 9.6929 24.07 9.70898 24.1016 9.72461C24.1671 9.75708 24.2325 9.78977 24.2969 9.82422C24.34 9.84726 24.3823 9.87159 24.4248 9.89551C24.4818 9.92756 24.5387 9.95958 24.5947 9.99316C24.6282 10.0132 24.6612 10.0341 24.6943 10.0547C24.755 10.0925 24.8156 10.1303 24.875 10.1699C24.9099 10.1932 24.9441 10.2174 24.9785 10.2412C25.0354 10.2806 25.0918 10.3203 25.1475 10.3613C25.1856 10.3895 25.2232 10.4184 25.2607 10.4473C25.3062 10.4822 25.351 10.5177 25.3955 10.5537C25.4412 10.5906 25.4865 10.628 25.5312 10.666C25.5678 10.6971 25.6037 10.7289 25.6396 10.7607C25.6919 10.8071 25.7441 10.8535 25.7949 10.9014C25.8176 10.9227 25.8399 10.9442 25.8623 10.9658C25.9085 11.0104 25.9541 11.0557 25.999 11.1016C26.0416 11.145 26.0836 11.1889 26.125 11.2334C26.1627 11.2739 26.1996 11.3151 26.2363 11.3564C26.27 11.3944 26.3031 11.433 26.3359 11.4717C26.3748 11.5175 26.4134 11.5635 26.4512 11.6104C26.4842 11.6513 26.5167 11.6927 26.5488 11.7344C26.5819 11.7773 26.6144 11.8206 26.6465 11.8643C26.6803 11.9104 26.7134 11.957 26.7461 12.0039C26.7774 12.0489 26.8086 12.0939 26.8389 12.1396C26.8696 12.186 26.8991 12.2331 26.9287 12.2803C26.9573 12.3257 26.9861 12.3709 27.0137 12.417C27.0429 12.4659 27.0706 12.5157 27.0986 12.5654C27.1263 12.6144 27.1542 12.6632 27.1807 12.7129C27.2066 12.7616 27.231 12.811 27.2559 12.8604C27.2806 12.9096 27.3055 12.9589 27.3291 13.0088C27.3507 13.0543 27.371 13.1004 27.3916 13.1465C27.4185 13.2067 27.4454 13.267 27.4707 13.3281C27.4863 13.3659 27.5006 13.4043 27.5156 13.4424C27.5384 13.5004 27.5617 13.5584 27.583 13.6172C27.6003 13.665 27.6156 13.7135 27.6318 13.7617C27.6539 13.8272 27.6761 13.8927 27.6963 13.959C27.7152 14.021 27.7318 14.0837 27.749 14.1465C27.7597 14.1856 27.7722 14.2243 27.7822 14.2637C27.8021 14.3415 27.8187 14.4202 27.8359 14.499C27.8426 14.5297 27.8511 14.56 27.8574 14.5908C27.8719 14.6616 27.8832 14.7331 27.8955 14.8047C27.904 14.8538 27.9135 14.9027 27.9209 14.9521C27.9229 14.9655 27.9248 14.9788 27.9268 14.9922C27.9742 15.3213 28 15.6577 28 16V26L27.9893 26.2041C27.8938 27.1457 27.1457 27.8938 26.2041 27.9893L26 28H2C0.96435 28 0.113005 27.2128 0.0107422 26.2041L0 26V15C0 11.6863 2.68629 9 6 9H7.5V6H1C0.447715 6 6.44255e-08 5.55228 0 5V1C1.61065e-08 0.447715 0.447715 8.05319e-08 1 0H8.5C8.53461 0 8.56884 0.00145116 8.60254 0.00488281ZM6 11C3.79086 11 2 12.7909 2 15V26H14V16C14 14.0409 14.8055 12.2706 16.1025 11H9.5V16C9.5 16.5523 9.05228 17 8.5 17C7.94772 17 7.5 16.5523 7.5 16V11H6ZM21 11C18.2386 11 16 13.2386 16 16V26H26V16C26 13.2386 23.7614 11 21 11Z" fill="black"/>
</svg>
