<svg width="46" height="46" viewBox="0 0 46 46" fill="none" xmlns="http://www.w3.org/2000/svg">
<path d="M34.388 21.4327C35.1747 21.4893 35.7668 22.1722 35.7106 22.959C35.2724 29.0936 30.3485 33.8971 24.2848 34.2606C24.2849 34.269 24.2862 34.2773 24.2862 34.2857V39.2857C24.2862 40.0745 23.6464 40.714 22.8576 40.7143C22.0687 40.7143 21.4291 40.0747 21.4291 39.2857V34.2606C15.3656 33.8969 10.4429 29.0934 10.0047 22.959C9.94846 22.172 10.5403 21.489 11.3272 21.4327C12.114 21.3768 12.7972 21.9685 12.8534 22.7553C13.2025 27.6421 17.2693 31.4284 22.1685 31.4286H23.5468C28.4458 31.4281 32.5128 27.6419 32.8618 22.7553C32.9181 21.9684 33.6011 21.3765 34.388 21.4327Z" fill="#FAFAFA"/>
<path fill-rule="evenodd" clip-rule="evenodd" d="M22.8576 4.28571C27.5913 4.28597 31.4291 8.12343 31.4291 12.8571V21.4286C31.4291 26.1623 27.5913 29.9997 22.8576 30C18.2716 30 14.5268 26.3984 14.2974 21.8694L14.2862 21.4286V12.8571C14.2862 8.12327 18.1238 4.28571 22.8576 4.28571ZM22.8576 7.14285C19.7017 7.14285 17.1433 9.70122 17.1433 12.8571V21.4286C17.1433 24.5845 19.7017 27.1428 22.8576 27.1428C26.0133 27.1426 28.5719 24.5843 28.5719 21.4286V12.8571C28.5719 9.70139 26.0133 7.14311 22.8576 7.14285Z" fill="#FAFAFA"/>
</svg>
