<svg width="18" height="26" viewBox="0 0 18 26" fill="none" xmlns="http://www.w3.org/2000/svg">
<path d="M17.0709 12.0029C17.6216 12.0425 18.0361 12.5206 17.9967 13.0713C17.69 17.3655 14.2433 20.728 9.99868 20.9824C9.99878 20.9883 9.99966 20.9941 9.99966 21V24.5C9.99966 25.0522 9.55178 25.4998 8.99966 25.5C8.44737 25.5 7.99966 25.0523 7.99966 24.5V20.9824C3.75522 20.7279 0.309355 17.3654 0.00258614 13.0713C-0.0367609 12.5204 0.377521 12.0423 0.928367 12.0029C1.47908 11.9638 1.95735 12.378 1.99673 12.9287C2.24108 16.3495 5.0878 18.9999 8.51723 19H9.48208C12.9114 18.9997 15.7583 16.3494 16.0026 12.9287C16.042 12.3779 16.5201 11.9636 17.0709 12.0029Z" fill="black"/>
<path fill-rule="evenodd" clip-rule="evenodd" d="M8.99966 0C12.3132 0.000185667 14.9997 2.68641 14.9997 6V12C14.9997 15.3136 12.3132 17.9998 8.99966 18C5.78945 18 3.16809 15.4789 3.00747 12.3086L2.99966 12V6C2.99966 2.68629 5.68595 0 8.99966 0ZM8.99966 2C6.79052 2 4.99966 3.79086 4.99966 6V12C4.99966 14.2091 6.79052 16 8.99966 16C11.2086 15.9998 12.9997 14.209 12.9997 12V6C12.9997 3.79098 11.2086 2.00019 8.99966 2Z" fill="black"/>
</svg>
