<svg width="28" height="28" viewBox="0 0 28 28" fill="none" xmlns="http://www.w3.org/2000/svg">
<path d="M4.29981 23.0309C5.32344 22.9929 6.32423 22.9724 7.32423 23.0661C9.37864 23.2585 11.3569 23.9237 13.7139 25.7155C13.7237 25.7229 13.7377 25.7286 13.7549 25.7291C13.772 25.7296 13.7854 25.7252 13.794 25.7194C18.8282 22.2523 22.1271 23.1501 26.9941 23.1207C27.5462 23.1175 27.9964 23.5619 28 24.1139C28.0031 24.666 27.558 25.1174 27.0059 25.1207C21.7873 25.1522 19.3218 24.3406 14.9287 27.3659C14.193 27.8724 13.211 27.8454 12.5039 27.3082C10.4319 25.7331 8.80513 25.2134 7.1377 25.0573C6.27707 24.9767 5.38778 24.9913 4.37403 25.0289C3.3739 25.0661 2.24758 25.1263 0.995126 25.1207C0.443177 25.118 -0.00224461 24.6678 8.51033e-06 24.1159C0.00250734 23.5636 0.452648 23.1183 1.00489 23.1207C2.20255 23.126 3.26233 23.0694 4.29981 23.0309Z" fill="black"/>
<path fill-rule="evenodd" clip-rule="evenodd" d="M1.95606 0.162731C3.93389 0.0905189 5.83511 -0.14099 7.67286 0.123668C9.60736 0.402298 11.4975 1.21231 13.7149 3.10902C13.7246 3.11721 13.7395 3.12414 13.7588 3.12464C13.7778 3.12507 13.7914 3.11938 13.7998 3.11293C16.1796 1.27199 18.1685 0.468974 20.1621 0.17445C22.0804 -0.108872 24.006 0.0925622 26.0449 0.162731C27.1162 0.199592 27.9999 1.07211 28 2.17347V18.733C27.9998 19.8273 27.1117 20.7391 25.9902 20.7213C23.672 20.6846 22.0238 20.5223 20.332 20.7702C18.7233 21.0059 17.0908 21.6242 15.0293 23.2272C14.2522 23.831 13.1513 23.7994 12.4082 23.1618C10.4876 21.5134 8.96495 20.9106 7.45802 20.6959C5.84766 20.4666 4.28797 20.6639 2.01856 20.7164C0.890795 20.7425 0.000437263 19.8264 8.51033e-06 18.7321V2.1764C0.000155161 1.07137 0.887955 0.201731 1.95606 0.162731ZM12.5 12.4987C11.9477 12.4987 11.5 12.9464 11.5 13.4987C11.5002 14.0508 11.9478 14.4987 12.5 14.4987H15.5C16.0522 14.4987 16.4998 14.0508 16.5 13.4987C16.5 12.9464 16.0523 12.4987 15.5 12.4987H12.5ZM10 8.99867C9.17159 8.99867 8.50001 9.67025 8.50001 10.4987C8.5002 11.3269 9.17171 11.9987 10 11.9987C10.8283 11.9987 11.4998 11.3269 11.5 10.4987C11.5 9.67024 10.8284 8.99867 10 8.99867ZM18 8.99867C17.1716 8.99867 16.5 9.67025 16.5 10.4987C16.5002 11.3269 17.1717 11.9987 18 11.9987C18.8283 11.9987 19.4998 11.3269 19.5 10.4987C19.5 9.67024 18.8284 8.99867 18 8.99867Z" fill="black"/>
</svg>
