<svg width="24" height="25" viewBox="0 0 24 25" fill="none" xmlns="http://www.w3.org/2000/svg">
<path fill-rule="evenodd" clip-rule="evenodd" d="M17.8797 13L18.1414 13.0068C19.3627 13.0702 20.5228 13.5774 21.2869 14.5205L21.4442 14.7295C23.0719 17.0469 25.1746 21.0849 21.7498 22.9619C17.4119 25.6788 6.44842 25.6787 2.11019 22.9619C-1.83765 21.0388 0.637665 16.8469 2.42171 14.5615L2.58089 14.3721C3.34468 13.5153 4.44615 13.0623 5.60042 13.0059L5.84847 13H17.8797ZM5.84847 15C5.01989 15 4.36854 15.3195 3.99886 15.793C3.144 16.8881 2.31663 18.2132 2.06917 19.3301C1.9535 19.8524 1.99916 20.1789 2.0848 20.3818C2.15716 20.5532 2.34641 20.8528 2.98519 21.1641L3.08089 21.2109L3.17171 21.2676C4.85547 22.3218 8.21586 23 11.9295 23C15.6435 23 19.0046 22.322 20.6883 21.2676L20.7381 21.2363L20.7889 21.208C21.2781 20.9398 21.4371 20.6818 21.5077 20.4971C21.5932 20.273 21.6326 19.9235 21.5291 19.3965C21.3114 18.2876 20.5812 16.9805 19.8075 15.8789C19.4419 15.3584 18.757 15.0001 17.8797 15H5.84847Z" fill="black"/>
<path fill-rule="evenodd" clip-rule="evenodd" d="M11.7928 0C15.1064 9.844e-05 17.7928 2.68635 17.7928 6C17.7928 9.31365 15.1064 11.9999 11.7928 12C8.4791 12 5.79281 9.31371 5.79281 6C5.79281 2.68629 8.4791 0 11.7928 0ZM11.7928 2C9.58367 2 7.79281 3.79086 7.79281 6C7.79281 8.20914 9.58367 10 11.7928 10C14.0019 9.9999 15.7928 8.20908 15.7928 6C15.7928 3.79092 14.0019 2.0001 11.7928 2Z" fill="black"/>
</svg>
