<svg width="32" height="32" viewBox="0 0 32 32" fill="none" xmlns="http://www.w3.org/2000/svg">
<path d="M13.75 7.99962C14.3022 7.99962 14.7498 8.44751 14.75 8.99962V26.9996C14.75 27.5519 14.3023 27.9996 13.75 27.9996C13.1977 27.9996 12.75 27.5519 12.75 26.9996V8.99962C12.7502 8.44751 13.1978 7.99962 13.75 7.99962Z" fill="black"/>
<path d="M9.25 11.9996C9.80216 11.9996 10.2498 12.4475 10.25 12.9996V24.9996C10.25 25.5519 9.80228 25.9996 9.25 25.9996C8.69772 25.9996 8.25 25.5519 8.25 24.9996V12.9996C8.25021 12.4475 8.69784 11.9996 9.25 11.9996Z" fill="black"/>
<path d="M18.25 11.9996C18.8022 11.9996 19.2498 12.4475 19.25 12.9996V24.9996C19.25 25.5519 18.8023 25.9996 18.25 25.9996C17.6977 25.9996 17.25 25.5519 17.25 24.9996V12.9996C17.2502 12.4475 17.6978 11.9996 18.25 11.9996Z" fill="black"/>
<path d="M4.75 13.9996C5.30216 13.9996 5.74979 14.4475 5.75 14.9996V22.9996L5.74512 23.1022C5.69379 23.6063 5.26768 23.9996 4.75 23.9996C4.23232 23.9996 3.80621 23.6063 3.75488 23.1022L3.75 22.9996V14.9996C3.75021 14.4475 4.19784 13.9996 4.75 13.9996Z" fill="black"/>
<path d="M22.75 15.9996C23.3022 15.9996 23.7498 16.4475 23.75 16.9996V22.9996C23.75 23.5519 23.3023 23.9996 22.75 23.9996C22.1977 23.9996 21.75 23.5519 21.75 22.9996V16.9996C21.7502 16.4475 22.1978 15.9996 22.75 15.9996Z" fill="black"/>
<path d="M27.25 13.9996C27.8022 13.9996 28.2498 14.4475 28.25 14.9996V22.9996L28.2451 23.1022C28.1938 23.6063 27.7677 23.9996 27.25 23.9996C26.7323 23.9996 26.3062 23.6063 26.2549 23.1022L26.25 22.9996V14.9996C26.2502 14.4475 26.6978 13.9996 27.25 13.9996Z" fill="black"/>
<path d="M21.8369 4.9547C22.0518 4.32117 22.9482 4.32117 23.1631 4.9547L23.8828 7.07579C23.9484 7.26859 24.0944 7.42338 24.2832 7.49962L26.3916 8.35118C26.9756 8.58691 26.9756 9.4133 26.3916 9.64903L24.2832 10.5006C24.0943 10.5769 23.9483 10.7316 23.8828 10.9244L23.1631 13.0455C22.9482 13.679 22.0518 13.679 21.8369 13.0455L21.1172 10.9244C21.0517 10.7316 20.9057 10.5769 20.7168 10.5006L18.6084 9.64903C18.0244 9.4133 18.0244 8.58691 18.6084 8.35118L20.7168 7.49962C20.9056 7.42338 21.0516 7.26859 21.1172 7.07579L21.8369 4.9547Z" fill="black"/>
</svg>
